<svg width="60" height="59" viewBox="0 0 60 59" fill="none" xmlns="http://www.w3.org/2000/svg">
<path d="M59.312 28.808C58.951 13.0328 45.9037 0.207494 30.02 0.0022887C13.2854 -0.202917 -0.329147 13.4176 0.00606008 30.1162C0.341267 45.9683 13.4144 58.8449 29.3754 58.9988C38.0134 59.0757 45.7748 55.4846 51.2412 49.7132C51.7053 49.2259 52.0148 48.6616 52.1695 48.0716C52.4273 47.4303 52.582 46.7121 52.582 45.9939C52.582 44.6857 52.0921 43.4288 51.2154 42.5054L38.4518 29.0901C37.8329 28.4489 37.0078 28.0898 36.1311 28.0898C35.2544 28.0898 34.4293 28.4489 33.8104 29.0901L29.1175 33.9637C28.4987 34.605 27.6736 34.9641 26.7969 34.9641C25.9202 34.9641 25.095 34.605 24.4762 33.9637C23.8574 33.3225 23.0322 32.9634 22.1813 32.9634C21.3046 32.9634 20.4795 33.3225 19.8606 33.9637L12.6666 41.505C10.3717 38.35 8.92773 34.5024 8.74724 30.3727C8.23153 18.4708 17.7978 8.64656 29.659 8.64656C41.2108 8.64656 50.545 17.9577 50.545 29.4236V29.5005C50.545 30.5779 50.9834 31.6039 51.7311 32.3734C54.5417 35.1693 59.312 33.1686 59.2862 29.2184C59.312 29.0901 59.312 28.9619 59.312 28.808Z" fill="#0245F5"/>
<path d="M20.4798 22.6519C18.1076 23.6266 16.973 26.3456 17.9529 28.7055C18.9327 31.0653 21.6659 32.194 24.0382 31.2192C26.4104 30.2445 27.5449 27.5255 26.5651 25.1657C25.5595 22.8058 22.852 21.6772 20.4798 22.6519Z" fill="#0245F5"/>
<path d="M34.2233 17.6757C31.851 18.6504 30.7165 21.3694 31.6963 23.7293C32.6762 26.0891 35.4094 27.2178 37.7816 26.243C40.1539 25.2683 41.2884 22.5493 40.3086 20.1895C39.3287 17.8296 36.5955 16.701 34.2233 17.6757Z" fill="#0245F5"/>
</svg>
