<svg width="390" height="357" viewBox="0 0 390 357" fill="none" xmlns="http://www.w3.org/2000/svg">
<g clip-path="url(#clip0_234_52)">
<path d="M420.959 176.811C417.352 165.008 412.83 153.505 407.433 142.407V142.407L282.317 9.93852C279.429 6.80458 275.924 4.30351 272.023 2.59287C268.123 0.882225 263.91 -0.000915527 259.652 -0.000915527C255.394 -0.000915527 251.181 0.882225 247.281 2.59287C243.38 4.30351 239.875 6.80458 236.987 9.93852L190.999 58.1751C188.096 61.2843 184.587 63.7631 180.688 65.4578C176.789 67.1526 172.584 68.0271 168.334 68.0271C164.084 68.0271 159.879 67.1526 155.98 65.4578C152.081 63.7631 148.572 61.2843 145.669 58.1751C142.789 55.0418 139.292 52.5398 135.399 50.8264C131.505 49.113 127.3 48.2254 123.047 48.2196C118.78 48.2328 114.562 49.1232 110.653 50.8357C106.744 52.5482 103.228 55.0462 100.323 58.1751L-30.4741 196.045C-51.9975 255.303 -43.6114 291.857 -33.8557 312.869C27.6373 445.168 367.396 440.343 419.268 326.414C432.253 297.851 439.084 236.239 420.959 176.811Z" fill="url(#paint0_linear_234_52)"/>
</g>
<defs>
<linearGradient id="paint0_linear_234_52" x1="1" y1="206" x2="387.5" y2="206" gradientUnits="userSpaceOnUse">
<stop stop-color="#ECF0F7" stop-opacity="0.19"/>
<stop offset="0.619792" stop-color="#828CB5" stop-opacity="0.2"/>
</linearGradient>
<clipPath id="clip0_234_52">
<rect width="476" height="412" fill="white" transform="translate(-44)"/>
</clipPath>
</defs>
</svg>
