<svg width="71" height="71" viewBox="0 0 71 71" fill="none" xmlns="http://www.w3.org/2000/svg">
<path d="M70.0628 34.3295C69.6059 15.5308 54.2242 0.247263 35.4614 0.00272737C15.6631 -0.241809 -0.388795 15.9893 0.00717171 35.8884C0.403138 54.7788 15.8458 70.1234 34.7 70.3068C44.9037 70.3985 54.0719 66.1192 60.5292 59.2416C61.0774 58.6608 61.4429 57.9883 61.6257 57.2853C61.9303 56.5211 62.113 55.6652 62.113 54.8094C62.113 53.2505 61.5343 51.7527 60.4987 50.6523L45.4215 34.6657C44.6905 33.9015 43.7158 33.4736 42.6802 33.4736C41.6446 33.4736 40.6699 33.9015 39.9389 34.6657L34.3954 40.4734C33.6643 41.2376 32.6897 41.6656 31.6541 41.6656C30.6184 41.6656 29.6438 41.2376 28.9127 40.4734C28.1817 39.7093 27.207 39.2813 26.2019 39.2813C25.1663 39.2813 24.1916 39.7093 23.4606 40.4734L14.9625 49.4601C12.2517 45.7004 10.546 41.1154 10.3328 36.1941C9.69313 21.9804 20.963 10.2427 34.9741 10.2427C48.6197 10.2427 59.6459 21.3385 59.6459 35.0019V35.0937C59.6459 36.3775 60.1637 37.6001 61.047 38.5172C64.367 41.849 70.0019 39.4647 69.9715 34.7574C70.0628 34.6657 70.0628 34.5129 70.0628 34.3295Z" fill="white"/>
<path d="M24.1612 26.9934C21.359 28.1549 20.0188 31.395 21.1762 34.2072C22.3336 37.0194 25.5623 38.3643 28.3645 37.2028C31.1668 36.0412 32.5069 32.8011 31.3495 29.989C30.1921 27.1768 26.9939 25.8319 24.1612 26.9934Z" fill="white"/>
<path d="M40.4263 21.0634C37.624 22.2249 36.2838 25.465 37.4413 28.2772C38.5987 31.0894 41.8274 32.4343 44.6296 31.2728C47.4318 30.1112 48.772 26.8711 47.6146 24.059C46.4267 21.2468 43.2285 19.9018 40.4263 21.0634Z" fill="white"/>
</svg>
