<svg width="390" height="844" viewBox="0 0 390 844" fill="none" xmlns="http://www.w3.org/2000/svg">
<g clip-path="url(#clip0_610_703)">
<rect width="390" height="844" fill="white"/>
<rect width="390" height="844" fill="url(#paint0_linear_610_703)"/>
<path d="M230.063 268.329C229.606 249.531 214.224 234.247 195.461 234.003C175.663 233.758 159.611 249.989 160.007 269.888C160.403 288.779 175.846 304.123 194.7 304.307C204.904 304.399 214.072 300.119 220.529 293.242C221.077 292.661 221.443 291.988 221.626 291.285C221.93 290.521 222.113 289.665 222.113 288.809C222.113 287.25 221.534 285.753 220.499 284.652L205.422 268.666C204.691 267.902 203.716 267.474 202.68 267.474C201.645 267.474 200.67 267.902 199.939 268.666L194.395 274.473C193.664 275.238 192.69 275.666 191.654 275.666C190.618 275.666 189.644 275.238 188.913 274.473C188.182 273.709 187.207 273.281 186.202 273.281C185.166 273.281 184.192 273.709 183.461 274.473L174.963 283.46C172.252 279.7 170.546 275.115 170.333 270.194C169.693 255.98 180.963 244.243 194.974 244.243C208.62 244.243 219.646 255.338 219.646 269.002V269.094C219.646 270.377 220.164 271.6 221.047 272.517C224.367 275.849 230.002 273.465 229.971 268.757C230.063 268.666 230.063 268.513 230.063 268.329Z" fill="white"/>
<path d="M184.161 260.993C181.359 262.155 180.019 265.395 181.176 268.207C182.334 271.019 185.562 272.364 188.365 271.203C191.167 270.041 192.507 266.801 191.35 263.989C190.192 261.177 186.994 259.832 184.161 260.993Z" fill="white"/>
<path d="M200.426 255.063C197.624 256.225 196.284 259.465 197.441 262.277C198.599 265.089 201.827 266.434 204.63 265.273C207.432 264.111 208.772 260.871 207.615 258.059C206.427 255.247 203.228 253.902 200.426 255.063Z" fill="white"/>
<g clip-path="url(#clip1_610_703)" filter="url(#filter0_d_610_703)">
<g clip-path="url(#clip2_610_703)">
<path d="M420.959 663.811C417.352 652.008 412.83 640.505 407.433 629.407L282.317 496.939C279.429 493.805 275.924 491.304 272.023 489.593C268.123 487.882 263.91 486.999 259.652 486.999C255.394 486.999 251.181 487.882 247.281 489.593C243.38 491.304 239.875 493.805 236.987 496.939L190.999 545.175C188.096 548.284 184.587 550.763 180.688 552.458C176.789 554.153 172.584 555.027 168.334 555.027C164.084 555.027 159.879 554.153 155.98 552.458C152.081 550.763 148.572 548.284 145.669 545.175C142.789 542.042 139.292 539.54 135.399 537.826C131.505 536.113 127.3 535.225 123.047 535.22C118.78 535.233 114.562 536.123 110.653 537.836C106.744 539.548 103.228 542.046 100.323 545.175L-30.4741 683.045C-51.9975 742.303 -43.6114 778.857 -33.8557 799.869C27.6373 932.168 367.396 927.343 419.268 813.414C432.253 784.851 439.084 723.239 420.959 663.811Z" fill="url(#paint1_linear_610_703)"/>
</g>
</g>
</g>
<defs>
<filter id="filter0_d_610_703" x="-49" y="487" width="471" height="365" filterUnits="userSpaceOnUse" color-interpolation-filters="sRGB">
<feFlood flood-opacity="0" result="BackgroundImageFix"/>
<feColorMatrix in="SourceAlpha" type="matrix" values="0 0 0 0 0 0 0 0 0 0 0 0 0 0 0 0 0 0 127 0" result="hardAlpha"/>
<feOffset dy="4"/>
<feGaussianBlur stdDeviation="2"/>
<feComposite in2="hardAlpha" operator="out"/>
<feColorMatrix type="matrix" values="0 0 0 0 0.117647 0 0 0 0 0.117647 0 0 0 0 0.117647 0 0 0 1 0"/>
<feBlend mode="normal" in2="BackgroundImageFix" result="effect1_dropShadow_610_703"/>
<feBlend mode="normal" in="SourceGraphic" in2="effect1_dropShadow_610_703" result="shape"/>
</filter>
<linearGradient id="paint0_linear_610_703" x1="-5.87268e-06" y1="382" x2="390" y2="382" gradientUnits="userSpaceOnUse">
<stop stop-color="#0245F5"/>
<stop offset="0.630208" stop-color="#0373FB"/>
</linearGradient>
<linearGradient id="paint1_linear_610_703" x1="1" y1="693" x2="387.5" y2="693" gradientUnits="userSpaceOnUse">
<stop stop-color="#ECF0F7" stop-opacity="0.19"/>
<stop offset="0.619792" stop-color="#828CB5" stop-opacity="0.2"/>
</linearGradient>
<clipPath id="clip0_610_703">
<rect width="390" height="844" fill="white"/>
</clipPath>
<clipPath id="clip1_610_703">
<rect width="463" height="357" fill="white" transform="translate(-45 487)"/>
</clipPath>
<clipPath id="clip2_610_703">
<rect width="476" height="412" fill="white" transform="translate(-44 487)"/>
</clipPath>
</defs>
</svg>
